Coordinates
version=1
nRows=21
nColumns=22
inDegrees=yes

Units are S.I. units (second, meters, Newtons, ...)
If the header above contains a line with 'inDegrees', this indicates whether rotational values are in degrees (yes) or radians (no).

endheader
time	pelvis_tilt	pelvis_list	pelvis_rotation	pelvis_tx	pelvis_ty	pelvis_tz	hip_flexion_r	hip_adduction_r	hip_rotation_r	knee_angle_r	ankle_angle_r	subtalar_angle_r	hip_flexion_l	hip_adduction_l	hip_rotation_l	knee_angle_l	ankle_angle_l	subtalar_angle_l	lumbar_extension	lumbar_bending	lumbar_rotation
      4.20000000	     -0.46737004	    -10.08601321	    -91.21074542	      0.35207596	      0.93937560	      0.56466012	      0.55846102	      0.02980771	     -1.83472752	    -58.05551874	     -3.83811230	      7.30743117	      9.30310841	     -0.96950161	     -9.40162442	    -27.83213430	     15.72818804	    -15.16029214	    -14.46272964	      1.10424082	     -7.25043450
      4.21000000	     -0.36784305	    -10.04309567	    -91.08007429	      0.35400523	      0.94000734	      0.56971121	      1.53042717	     -0.25143654	     -2.29044617	    -58.00599468	     -2.58456677	      6.43920487	      8.91170602	     -0.69020425	     -9.32118340	    -27.63004385	     15.95654843	    -15.35097042	    -14.54449503	      1.07074616	     -7.52300068
      4.22000000	     -0.24391150	     -9.98776036	    -90.95296095	      0.35589523	      0.94055848	      0.57459360	      2.48279228	     -0.57571877	     -2.76048780	    -57.84024352	     -1.28598870	      5.50100323	      8.53821997	     -0.39247701	     -9.26681355	    -27.41585515	     16.16677613	    -15.51842599	    -14.61203785	      1.01227719	     -7.78597013
      4.23000000	     -0.12459894	     -9.92927815	    -90.83757705	      0.35773236	      0.94105449	      0.57931630	      3.39777106	     -0.90593133	     -3.23760053	    -57.55286934	      0.08563245	      4.47334061	      8.17551537	     -0.10785040	     -9.22443567	    -27.19954676	     16.36064565	    -15.66730431	    -14.67785178	      0.96223599	     -7.99218478
      4.24000000	      0.00047674	     -9.85565779	    -90.73166562	      0.35949962	      0.94147895	      0.58391019	      4.28536703	     -1.24008637	     -3.69848969	    -57.15363860	      1.49526417	      3.41283708	      7.83465405	      0.17191826	     -9.21126668	    -26.97930737	     16.55052904	    -15.79327462	    -14.72174344	      0.90686059	     -8.19815918
      4.25000000	      0.10741501	     -9.76835192	    -90.63399054	      0.36118613	      0.94183857	      0.58837657	      5.13509951	     -1.54520749	     -4.14215298	    -56.63777382	      2.92074603	      2.28926829	      7.52324632	      0.42137706	     -9.20573010	    -26.77285931	     16.73924317	    -15.91396674	    -14.75025764	      0.86959123	     -8.35015661
      4.26000000	      0.20429449	     -9.66134722	    -90.54636727	      0.36277792	      0.94212832	      0.59274446	      5.95034153	     -1.82309192	     -4.55228108	    -56.01109341	      4.28637217	      1.28561249	      7.24633737	      0.64800529	     -9.21302052	    -26.58101222	     16.92478026	    -16.01742502	    -14.74887269	      0.84195918	     -8.49045214
      4.27000000	      0.30198234	     -9.53882430	    -90.44619326	      0.36430499	      0.94234659	      0.59701263	      6.72148211	     -2.09164530	     -4.95706384	    -55.28402128	      5.54114976	      0.56535146	      7.01309335	      0.86352262	     -9.22746910	    -26.42476976	     17.07819868	    -16.09698533	    -14.72617041	      0.81070446	     -8.60196383
      4.28000000	      0.32033527	     -9.41758282	    -90.37300424	      0.36565101	      0.94255488	      0.60121563	      7.40660699	     -2.21217936	     -5.25868741	    -54.40921209	      6.65305059	     -0.12106796	      6.79157129	      0.97750444	     -9.24013941	    -26.29460058	     17.33345833	    -16.19558275	    -14.69593630	      0.85899493	     -8.67620350
      4.29000000	      0.33061540	     -9.29185646	    -90.28140541	      0.36689731	      0.94272720	      0.60535357	      8.02183675	     -2.29159258	     -5.52291950	    -53.43149560	      7.59717526	     -0.44031739	      6.59581832	      1.07039101	     -9.24657038	    -26.19290556	     17.57037977	    -16.26093367	    -14.65303903	      0.91006139	     -8.73916325
      4.30000000	      0.30214050	     -9.18788106	    -90.20745009	      0.36797412	      0.94291685	      0.60942507	      8.53802293	     -2.27501326	     -5.69216144	    -52.34441742	      8.39374660	     -0.42137022	      6.38944899	      1.10732423	     -9.26134477	    -26.11188576	     17.81196432	    -16.26007794	    -14.62801564	      0.99144143	     -8.75554821
      4.31000000	      0.26725263	     -9.06978268	    -90.11174684	      0.36896493	      0.94305611	      0.61342961	      8.99659633	     -2.22001135	     -5.82372249	    -51.17211529	      9.10087047	     -0.38651615	      6.22031928	      1.13181950	     -9.23706267	    -26.05943678	     18.04756865	    -16.27267191	    -14.57824853	      1.07581229	     -8.77987763
      4.32000000	      0.21730615	     -8.95096933	    -90.00650492	      0.36985543	      0.94317290	      0.61734838	      9.38801069	     -2.11081642	     -5.89592038	    -49.92449307	      9.72656828	     -0.30479640	      6.07138338	      1.13410974	     -9.18824363	    -26.03056404	     18.28147941	    -16.28678643	    -14.52366019	      1.17208291	     -8.78960116
      4.33000000	      0.15414184	     -8.83609385	    -89.89464205	      0.37065350	      0.94327261	      0.62117166	      9.70977178	     -1.95847132	     -5.91576507	    -48.61314867	     10.29673164	     -0.17069963	      5.93831007	      1.11503262	     -9.11880415	    -26.02675069	     18.51497474	    -16.29799177	    -14.47145795	      1.27785353	     -8.78656519
      4.34000000	      0.07578053	     -8.73285444	    -89.77239783	      0.37139580	      0.94336533	      0.62491179	      9.95422171	     -1.77801846	     -5.91560438	    -47.25410951	     10.80478108	      0.04734312	      5.81113949	      1.07098003	     -9.05118681	    -26.04761898	     18.76468877	    -16.31496293	    -14.42779286	      1.40281440	     -8.78843906
      4.35000000	      0.00500854	     -8.63750812	    -89.65111169	      0.37206872	      0.94346067	      0.62853579	     10.13767607	     -1.58337161	     -5.84154837	    -45.86948832	     11.23421420	      0.31811048	      5.67568014	      1.04062949	     -8.93273771	    -26.05183261	     18.98111886	    -16.33247039	    -14.39600326	      1.51462600	     -8.76547972
      4.36000000	     -0.04370816	     -8.52849728	    -89.52046544	      0.37270082	      0.94348995	      0.63205382	     10.29259796	     -1.41604703	     -5.75692887	    -44.49770939	     11.69546937	      0.43787641	      5.57043581	      1.02700229	     -8.82971679	    -26.06772773	     19.15330576	    -16.33382118	    -14.34793081	      1.60034084	     -8.73319683
      4.37000000	     -0.08958136	     -8.43253993	    -89.38154554	      0.37330188	      0.94351563	      0.63548426	     10.37803965	     -1.25447317	     -5.66115698	    -43.12343438	     12.08258615	      0.51737348	      5.45659326	      1.01368728	     -8.71236500	    -26.08270296	     19.33922655	    -16.32898891	    -14.31410161	      1.68674971	     -8.70962538
      4.38000000	     -0.12602517	     -8.35208688	    -89.23456378	      0.37386817	      0.94353527	      0.63882273	     10.39643480	     -1.11004536	     -5.56840833	    -41.76588902	     12.40692453	      0.53159769	      5.33092050	      1.00507092	     -8.59991413	    -26.09330636	     19.53196561	    -16.30776756	    -14.29782246	      1.76462827	     -8.69351733
      4.39000000	     -0.15254017	     -8.28228821	    -89.07743642	      0.37440470	      0.94354297	      0.64208597	     10.35154996	     -0.98884301	     -5.49555990	    -40.43025249	     12.67212453	      0.46982386	      5.19772377	      0.99843832	     -8.50512638	    -26.10129723	     19.73416468	    -16.26140983	    -14.29268007	      1.83364445	     -8.68494497
      4.40000000	     -0.16779108	     -8.22273520	    -88.91361925	      0.37490416	      0.94354026	      0.64527352	     10.24634396	     -0.89180813	     -5.44871551	    -39.12346855	     12.86745159	      0.34244489	      5.05572157	      0.99613846	     -8.42303206	    -26.10368708	     19.94204780	    -16.18676755	    -14.29714746	      1.88994891	     -8.68455221
